# xmcd CD database file
#
# Track frame offsets:
#	150
#	10040
#	25547
#	40141
#	55575
#	68990
#	85841
#	102790
#	117891
#	132206
#	150095
#	178027
#
# Disc length: 4440 seconds
#
# Revision: 1
# Processed by: cddbd v1.4PL0 Copyright (c) Steve Scherf et al.
# Submitted via: CDex 1.51
#
DISCID=8111560c
DTITLE=Tracy Byrd - The Truth About Men
DYEAR=2003
DGENRE=Country
TTITLE0=Drinkin' Bone
TTITLE1=You Feel Good
TTITLE2=How'd I Wind Up In Jamaica
TTITLE3=Tiny Town
TTITLE4=The Truth About Men
TTITLE5=Making Memories Of Us
TTITLE6=That's What Keeps Her Getting By
TTITLE7=When You Go
TTITLE8=Baby Put Your Clothes On
TTITLE9=Somewhere I Wanna Go
TTITLE10=Ten Rounds With Jose Cuerco (Live)
TTITLE11=Datatrack
EXTD=YEAR: 2003
EXTT0=
EXTT1=
EXTT2=
EXTT3=
EXTT4=
EXTT5=
EXTT6=
EXTT7=
EXTT8=
EXTT9=
EXTT10=
EXTT11=
PLAYORDER=
